<svg xmlns="http://www.w3.org/2000/svg" viewBox="0 0 12.7 14.11"><title>CoolDownProxy</title><g id="图层_2" data-name="图层 2"><g id="图层_1-2" data-name="图层 1"><path d="M7.25,1.61V1h.07A.43.43,0,0,0,7.88.56.56.56,0,0,0,7.32,0H5.38a.56.56,0,0,0-.56.56A.43.43,0,0,0,5.38,1h.87v.61C2.55,1.89,0,4.58,0,7.85a6.31,6.31,0,0,0,6.35,6.26,6.28,6.28,0,0,0,.9-12.5ZM7.25,13v-.55c-.33-.31-.59-.56-.9-.56s-.56.25-.1.56V13A5.29,5.29,0,0,1,1.16,8h.56c.31.4.56.16.56-.15S2,7.29,1.72,7H1.16c.26-2.1,2.2-4,5.09-4.27v.55c-.46.31-.21.56.1.56s.56-.25.9-.56V2.73A5.19,5.19,0,0,1,11.54,7H11c-.31.29-.56.54-.56.85s.25.56.56.15h.56A5.26,5.26,0,0,1,7.25,13Z" style="fill:#ff931e"/><path d="M8.06,5.37,6.43,7H6.35a.88.88,0,1,0,.89.88s0-.06,0-.08l1.63-1.6a.55.55,0,0,0,0-.79A.57.57,0,0,0,8.06,5.37Z" style="fill:#ff931e"/></g></g></svg>